HIERARCHY
ROOT Hips
{
	OFFSET -0.001795 -0.223333 0.028219
	CHANNELS 6 Xposition Yposition Zposition Zrotation Yrotation Xrotation 
	JOINT LeftUpLeg
	{
		OFFSET 0.069520 -0.091406 -0.006815
		CHANNELS 3 Zrotation Yrotation Xrotation
		JOINT LeftLeg
		{
			OFFSET 0.034277 -0.375199 -0.004496
			CHANNELS 3 Zrotation Yrotation Xrotation
			JOINT LeftFoot
			{
				OFFSET -0.013596 -0.397961 -0.043693
				CHANNELS 3 Zrotation Yrotation Xrotation
				JOINT LeftToe
				{
					OFFSET 0.026358 -0.055791 0.119288
					CHANNELS 3 Zrotation Yrotation Xrotation
					End Site
					{
						OFFSET 0.000000 0.000000 0.000000
					}
				}
			}
		}
	}
	JOINT RightUpLeg
	{
		OFFSET -0.067670 -0.090522 -0.004320
		CHANNELS 3 Zrotation Yrotation Xrotation
		JOINT RightLeg
		{
			OFFSET -0.038290 -0.382569 -0.008850
			CHANNELS 3 Zrotation Yrotation Xrotation
			JOINT RightFoot
			{
				OFFSET 0.015774 -0.398415 -0.042312
				CHANNELS 3 Zrotation Yrotation Xrotation
				JOINT RightToe
				{
					OFFSET -0.025372 -0.048144 0.123348
					CHANNELS 3 Zrotation Yrotation Xrotation
					End Site
					{
						OFFSET 0.000000 0.000000 0.000000
					}
				}
			}
		}
	}
	JOINT Spine
	{
		OFFSET -0.002533 0.108963 -0.026696
		CHANNELS 3 Zrotation Yrotation Xrotation
		JOINT Spine1
		{
			OFFSET 0.005487 0.135180 0.001092
			CHANNELS 3 Zrotation Yrotation Xrotation
			JOINT Spine2
			{
				OFFSET 0.001457 0.052922 0.025425
				CHANNELS 3 Zrotation Yrotation Xrotation
				JOINT Neck
				{
					OFFSET -0.002778 0.213870 -0.042857
					CHANNELS 3 Zrotation Yrotation Xrotation
					JOINT Head
					{
						OFFSET 0.005152 0.064970 0.051349
						CHANNELS 3 Zrotation Yrotation Xrotation
						End Site
						{
							OFFSET 0.000000 0.000000 0.000000
						}
					}
				}
				JOINT LeftShoulder
				{
					OFFSET 0.078845 0.121749 -0.034090
					CHANNELS 3 Zrotation Yrotation Xrotation
					JOINT LeftArm
					{
						OFFSET 0.090977 0.030469 -0.008868
						CHANNELS 3 Zrotation Yrotation Xrotation
						JOINT LeftForeArm
						{
							OFFSET 0.259612 -0.012772 -0.027456
							CHANNELS 3 Zrotation Yrotation Xrotation
							JOINT LeftHand
							{
								OFFSET 0.249234 0.008986 -0.001171
								CHANNELS 3 Zrotation Yrotation Xrotation
								End Site
								{
									OFFSET 0.000000 0.000000 0.000000
								}
							}
						}
					}
				}
				JOINT RightShoulder
				{
					OFFSET -0.081759 0.118833 -0.038615
					CHANNELS 3 Zrotation Yrotation Xrotation
					JOINT RightArm
					{
						OFFSET -0.096012 0.032551 -0.009143
						CHANNELS 3 Zrotation Yrotation Xrotation
						JOINT RightForeArm
						{
							OFFSET -0.253742 -0.013329 -0.021401
							CHANNELS 3 Zrotation Yrotation Xrotation
							JOINT RightHand
							{
								OFFSET -0.255298 0.007772 -0.005559
								CHANNELS 3 Zrotation Yrotation Xrotation
								End Site
								{
									OFFSET 0.000000 0.000000 0.000000
								}
							}
						}
					}
				}
			}
		}
	}
}
MOTION
Frames: 6
Frame Time: 0.050000
0.000000 0.924100 0.000000 -3.499717 -13.184047 2.061883 2.835385 -0.674627 -12.811311 0.561565 0.172028 29.531719 -4.445095 -2.845634 15.448125 0.000000 0.000000 0.000000 4.631059 1.467075 -11.407523 -5.789917 5.093153 31.748068 2.590130 9.007491 -2.387534 0.000000 0.000000 0.000000 3.447087 -0.726081 11.624559 -3.036007 1.706925 4.149548 -3.159932 2.266427 1.611094 8.191705 -5.043827 -9.218881 0.000000 0.000000 0.000000 -14.418022 -23.205338 10.885281 -48.045020 -37.421324 9.912774 21.460780 -33.893118 -4.884690 0.000000 0.000000 0.000000 13.548630 20.304200 7.889021 61.677690 38.054925 15.285472 -25.032738 44.335097 -8.815118 0.000000 0.000000 0.000000 
-0.003646 0.927564 0.004070 -3.465762 -13.383600 0.759164 3.182184 -0.527121 -10.400954 -0.625509 0.680406 29.654407 -2.475942 -0.750786 12.318606 0.000000 0.000000 0.000000 4.543562 1.061612 -8.790047 -5.195165 4.416718 29.298170 2.754875 7.784595 -0.717491 0.000000 0.000000 0.000000 4.069933 -0.630359 8.880496 -1.981817 1.100993 3.152936 -4.513186 3.717472 3.535450 9.484696 -5.633056 -11.019705 0.000000 0.000000 0.000000 -12.887643 -23.175633 10.283249 -48.761742 -38.614070 10.506839 23.744135 -38.055415 -6.409946 0.000000 0.000000 0.000000 12.215644 17.249939 6.630761 64.566874 38.341825 16.249114 -23.304397 46.648751 -8.276505 0.000000 0.000000 0.000000 
-0.006843 0.930836 0.008670 -2.873404 -11.588767 -0.666346 2.730053 -0.441643 -7.472819 -1.043671 0.569630 28.380186 -1.571390 -0.114186 8.955997 0.000000 0.000000 0.000000 4.417668 0.625535 -5.710212 -6.103329 4.124143 26.593090 3.315490 8.100686 0.492450 0.000000 0.000000 0.000000 4.856051 -0.516782 6.466758 -1.868189 0.954192 1.563954 -5.037885 4.399484 5.379467 8.891092 -5.193648 -11.211885 0.000000 0.000000 0.000000 -12.422406 -22.579773 9.630985 -50.662101 -40.841865 11.959414 24.547214 -38.897814 -6.952605 0.000000 0.000000 0.000000 11.482023 14.949505 5.790858 64.174838 39.477697 16.762420 -21.798730 48.008175 -7.567904 0.000000 0.000000 0.000000 
-0.009157 0.932586 0.012465 -2.258073 -11.045691 -2.099726 2.316667 -0.295811 -4.686515 -1.948670 0.826265 27.706383 -0.337323 1.194965 5.753704 0.000000 0.000000 0.000000 3.574994 0.357860 -3.701960 -5.583114 3.833851 26.181298 3.350690 7.993870 0.692657 0.000000 0.000000 0.000000 4.629242 -0.367417 4.836664 -1.718406 0.915670 2.730105 -5.272563 4.998392 4.810305 8.252256 -4.875485 -10.015193 0.000000 0.000000 0.000000 -11.015408 -21.582302 8.717677 -53.335499 -42.647495 13.786547 28.620011 -41.174192 -9.122215 0.000000 0.000000 0.000000 10.769267 13.399899 5.191252 66.252383 39.863043 17.949136 -24.863155 49.250532 -9.022636 0.000000 0.000000 0.000000 
-0.010352 0.933669 0.014883 -1.593463 -9.318395 -3.264625 2.098641 -0.187071 -2.948748 -2.076726 0.644743 26.614145 -1.204571 -0.359168 5.749241 0.000000 0.000000 0.000000 2.675296 0.071130 -1.208746 -5.469910 3.386173 24.257777 3.604472 8.609733 0.743276 0.000000 0.000000 0.000000 4.693016 -0.226789 3.150425 -2.137900 1.114666 2.684267 -5.222982 5.271738 4.884557 8.582570 -5.151869 -9.415005 0.000000 0.000000 0.000000 -11.744237 -21.004790 8.302225 -54.767952 -43.094960 14.454897 30.776718 -43.830441 -10.856398 0.000000 0.000000 0.000000 11.321956 12.270977 4.889087 66.437187 39.827109 18.109816 -27.080659 49.760000 -9.921899 0.000000 0.000000 0.000000 
-0.010767 0.934189 0.014968 -1.358984 -7.413292 -3.754957 1.790629 -0.128567 -1.958065 -1.353743 0.164305 25.478471 -1.881601 -1.803459 5.106604 0.000000 0.000000 0.000000 2.092198 -0.036139 -0.096386 -4.464685 2.822847 23.309128 3.345541 7.572306 1.229424 0.000000 0.000000 0.000000 4.812477 -0.155524 2.309541 -2.004410 1.019734 2.375801 -5.167783 5.341549 4.698489 8.044511 -4.915728 -8.281381 0.000000 0.000000 0.000000 -12.705177 -19.798208 7.596121 -56.596993 -43.049474 15.036141 31.877989 -47.283221 -12.533473 0.000000 0.000000 0.000000 11.204745 12.314937 5.076725 66.388719 40.653557 18.799051 -31.290645 48.430634 -11.277433 0.000000 0.000000 0.000000 
